<svg xmlns="http://www.w3.org/2000/svg" viewBox="0 0 533.5 544.3" width="24" height="24">
  <path fill="#4285f4" d="M533.5 278.4c0-17.3-1.5-34-4.3-50.2H272v95h147.4c-6.4 34-25.4 62.7-54.3 81.8v67h87.6c51.3-47.2 80.8-116.7 80.8-193.6z"/>
  <path fill="#34a853" d="M272 544.3c73.5 0 135.2-24.4 180.3-66.3l-87.6-67c-24.3 16.3-55.3 25.7-92.7 25.7-71 0-131.3-47.9-153-112.1h-89v70.4c45.4 89.6 137.8 149.3 242 149.3z"/>
  <path fill="#fbbc04" d="M119 324.6c-10.7-31.5-10.7-65.5 0-97v-70.4h-89c-38.5 75.9-38.5 162.1 0 238z"/>
  <path fill="#ea4335" d="M272 107.7c39.9-.6 78.3 14 107.8 41.5l80.5-80.5C398.5 25.6 336.1 0 272 0c-104.2 0-196.6 59.7-242 149.3l89 70.4c21.7-64.2 82-112.1 153-112z"/>
</svg>
